<svg width="210" height="196" viewBox="0 0 210 196" fill="none" xmlns="http://www.w3.org/2000/svg">
<path d="M182.785 26.2125C179.835 23.2624 178.369 22.957 176.637 22.2015C177.859 24.7762 177.987 26.7781 176.547 28.2567C174.712 30.1372 172.415 31.7639 170.863 32.6965C171.278 33.7794 170.99 34.6601 169.579 33.6162C169.16 34.0156 168.845 34.5063 167.981 34.5234C168.243 35.6033 168.339 36.2756 168.227 36.4139C164.946 37.4743 162.86 40.2895 160.626 42.1589C158.61 43.8497 156.235 45.1566 154.376 47.009C153.698 47.6799 153.125 48.4423 152.577 49.2307C144.528 41.2856 136.395 33.7497 128.133 28.4395L132.419 36.1564C138.515 37.5561 145.326 44.1542 151.684 50.554C151.336 51.0781 150.995 51.6014 150.624 52.1028C149.225 52.6159 147.816 53.015 146.404 53.248L46.3637 155.425C40.8492 161.057 40.4318 165.44 39.2591 169.778C43.5969 168.605 47.9673 168.175 53.599 162.66L155.776 62.6194C156.011 61.2055 156.41 59.797 156.927 58.394C157.43 58.0282 157.948 57.6862 158.47 57.3399C164.876 63.7045 171.476 70.5134 172.877 76.6148L180.588 80.8938C175.271 72.6256 167.745 64.5024 159.793 56.4465C160.585 55.9023 161.346 55.3234 162.018 54.6513C163.867 52.7892 165.066 50.3142 166.865 48.3978C169.221 45.8859 171.21 43.7339 172.613 40.8C172.602 40.7849 172.598 40.7763 172.587 40.7612C172.742 40.6578 173.41 40.7582 174.471 41.0131C174.488 40.1493 174.979 39.8344 175.378 39.4155C174.334 38.0043 175.215 37.7161 176.298 38.1311C177.231 36.5798 178.857 34.2823 180.738 32.4474C182.216 31.008 184.218 31.1355 186.793 32.3576C186.038 30.6253 185.732 29.1594 182.785 26.2125Z" fill="#e53170"/>
<path d="M26.2125 26.2418C23.2624 29.1919 22.957 30.6579 22.2015 32.3902C24.7762 31.1681 26.7781 31.0405 28.2567 32.48C30.1372 34.3149 31.7639 36.6124 32.6965 38.1637C33.7794 37.7487 34.6601 38.0368 33.6162 39.4481C34.0156 39.867 34.5063 40.1819 34.5234 41.0456C35.6033 40.784 36.2756 40.6878 36.4139 40.8C37.4743 44.0812 40.2895 46.1669 42.1589 48.4011C43.8497 50.4174 45.1566 52.7925 47.009 54.6513C47.6799 55.3288 48.4423 55.9023 49.2307 56.4497C41.2856 64.4992 33.7497 72.6321 28.4395 80.8938L36.1564 76.6083C37.5561 70.5122 44.1542 63.7012 50.554 57.3432C51.0781 57.6915 51.6014 58.0324 52.1028 58.4035C52.6159 59.8024 53.015 61.2109 53.248 62.6226L155.425 162.663C161.057 168.178 165.44 168.595 169.778 169.768C168.605 165.43 168.175 161.06 162.66 155.428L62.6194 53.2513C61.2055 53.0162 59.797 52.6171 58.394 52.0998C58.0282 51.5972 57.6862 51.0793 57.3399 50.5572C63.7045 44.1509 70.5134 37.5508 76.6148 36.1499L80.8938 28.4395C72.6256 33.7562 64.5024 41.2824 56.4465 49.234C55.9023 48.4423 55.3234 47.6811 54.6513 47.009C52.7892 45.1599 50.3142 43.9613 48.3978 42.1622C45.8859 39.8066 43.7339 37.8174 40.8 36.4139C40.7849 36.4248 40.7763 36.4292 40.7612 36.4402C40.6578 36.2847 40.7582 35.6166 41.0131 34.556C40.1493 34.5389 39.8344 34.0481 39.4155 33.6488C38.0043 34.6927 37.7161 33.8119 38.1311 32.729C36.5798 31.7964 34.2823 30.1698 32.4474 28.2893C31.008 26.8107 31.1355 24.8087 32.3576 22.2341C30.6253 22.9895 29.1594 23.2949 26.2125 26.2418Z" fill="#e53170"/>
</svg>
