<svg width="57" height="78" viewBox="0 0 57 78" fill="none" xmlns="http://www.w3.org/2000/svg">
<path fill-rule="evenodd" clip-rule="evenodd" d="M30.6496 0.0501332C30.0686 0.131076 29.6103 0.308614 29.6103 0.452804C29.6103 0.51238 29.761 0.646665 30.0259 0.823203C30.3759 1.0565 30.5608 1.36565 30.5998 1.7826C30.6261 2.06438 30.5629 2.77917 30.4572 3.39414C30.3841 3.81974 30.3831 3.85461 30.4404 3.99772C30.5265 4.21291 30.5167 4.30383 30.3899 4.46327C30.185 4.7209 30.1717 4.97433 30.3527 5.16819C30.505 5.33126 30.5103 5.42575 30.3908 5.84904C30.2584 6.31797 30.205 6.75087 30.2045 7.35682C30.204 7.94905 30.1522 8.47254 30.0098 9.32288C29.913 9.90083 29.8904 10.1445 29.8842 10.6769C29.88 11.0339 29.8752 11.3548 29.8734 11.39C29.8657 11.5417 29.7372 11.5564 28.0346 11.6005C25.3144 11.671 22.7951 11.8529 22.5099 11.9996C22.366 12.0737 22.3271 12.2036 22.3414 12.5627C22.3528 12.8482 22.3617 12.8788 22.4579 12.9615C22.6012 13.0847 22.6994 13.0748 23.0912 12.8981C24.3852 12.3143 25.961 12.0792 28.6318 12.0716C30.0616 12.0675 30.0153 12.0584 30.096 12.3578C30.1559 12.5799 30.0899 12.7817 29.7849 13.3106L29.5175 13.7743L29.5061 14.3864C29.4926 15.1154 29.9309 57.187 29.9605 57.9921C30.0134 59.4322 30.3027 60.3664 31.1243 61.7499C31.3984 62.2115 31.5185 62.2913 31.68 62.119C31.7691 62.0239 32.1892 61.3112 32.3843 60.924C32.8258 60.0478 33.0417 59.1194 33.0832 57.9179C33.1126 57.0666 33.5516 14.9575 33.5378 14.3122L33.5263 13.7743L33.2596 13.3106C33.113 13.0556 32.973 12.7776 32.9486 12.6929C32.8929 12.4993 32.9282 12.3025 33.0424 12.1701L33.1306 12.0679L34.4234 12.0722C37.0803 12.081 38.5665 12.2984 39.8811 12.8704C40.2595 13.0351 40.3205 13.0516 40.4111 13.0141C40.5521 12.9558 40.5973 12.8343 40.5973 12.5138C40.5973 12.0087 40.5441 11.9626 39.8728 11.8856C38.6161 11.7414 37.1675 11.6564 35.0092 11.6002C34.1119 11.5768 33.3398 11.5434 33.2933 11.5259C33.1654 11.4777 33.145 11.37 33.1643 10.8439C33.1802 10.412 33.1678 10.2762 33.0459 9.54546C32.9507 8.97393 32.8989 8.51813 32.8734 8.02454C32.8243 7.07201 32.7437 6.36997 32.634 5.9377C32.511 5.45316 32.515 5.38279 32.6774 5.17442C32.7988 5.01873 32.8103 4.98468 32.793 4.83163C32.7812 4.72698 32.7318 4.60219 32.6644 4.50689C32.5104 4.28899 32.4992 4.23951 32.5663 4.07187C32.6333 3.90461 32.6284 3.80631 32.5094 2.94247C32.4174 2.27501 32.4096 1.74922 32.4877 1.48636C32.5653 1.22506 32.779 0.96973 33.1038 0.75005C33.5245 0.465491 33.4993 0.334507 32.9935 0.177779C32.4404 0.00639777 31.3788 -0.0514341 30.6496 0.0501332ZM10.7285 22.0613C10.6469 22.1204 10.5158 22.2498 10.4372 22.3488C10.3586 22.4478 10.0834 22.7459 9.8257 23.0111C9.56795 23.2763 9.23901 23.6352 9.0947 23.8087C8.95038 23.9821 8.76197 24.1907 8.67601 24.2724C8.59001 24.354 8.4226 24.5459 8.30401 24.6989C7.97622 25.1218 7.11252 25.9561 6.6343 26.3117C6.11765 26.6958 5.49132 27.0234 4.88827 27.2249L4.43958 27.3749L3.85735 27.3631C3.32118 27.3522 3.25882 27.3436 3.06926 27.2548C2.77918 27.1188 2.58843 26.9433 2.58843 26.8123C2.58843 26.7045 2.60521 26.6873 2.97279 26.4171C3.21209 26.2413 3.29182 26.0625 3.29286 25.6991C3.2939 25.3394 3.20099 25.1434 2.94232 24.9597C2.75818 24.8289 2.75754 24.8288 2.34843 24.8288C1.97551 24.8288 1.9182 24.8383 1.70748 24.9356C1.36514 25.0936 1.17079 25.3193 1.05123 25.6974C0.965154 25.9698 0.955243 26.0606 0.955243 26.5773C0.955243 27.2578 1.02254 27.5852 1.25274 28.0246C1.77499 29.0213 2.75465 29.6977 4.07315 29.972C4.23454 30.0055 4.62773 30.0238 5.26093 30.0272C5.78151 30.03 6.22789 30.0342 6.25287 30.0365C6.34567 30.0451 6.41159 30.2561 6.41292 30.5489C6.41363 30.708 6.43842 30.9384 6.46801 31.0608C6.51307 31.2473 6.52209 31.8882 6.52368 35.0115C6.52528 38.1348 6.5343 38.7757 6.57936 38.9621C6.62297 39.1426 6.63314 39.5706 6.63314 41.225C6.63314 42.8793 6.62297 43.3073 6.57936 43.4878C6.54165 43.6439 6.52491 43.9431 6.52339 44.4894C6.52216 44.9178 6.50412 45.3351 6.4833 45.4168C6.46248 45.4984 6.43067 45.7404 6.41266 45.9546C6.37232 46.434 6.21739 46.9007 5.8661 47.6013C5.59165 48.1487 5.40937 48.4319 5.13417 48.7384C5.03035 48.8541 4.87446 49.0334 4.78771 49.1371C4.565 49.4031 3.90995 49.9418 3.64964 50.073C3.38985 50.2039 3.22716 50.2118 3.00512 50.1044C2.8019 50.0061 2.66219 49.8199 2.45195 49.3674C2.14391 48.7043 1.82755 48.0903 1.7407 47.9869C1.59531 47.8139 1.31584 47.8584 1.10372 48.0885C1.05268 48.1438 0.885647 48.2852 0.732535 48.4026C0.385334 48.6689 0.0389484 49.0299 0.00643302 49.1594C-0.00715216 49.2134 0.00149641 49.3052 0.0256231 49.3634C0.0918787 49.5233 1.48967 50.8841 1.77184 51.0635C1.90454 51.1479 2.19283 51.2849 2.41246 51.3679L2.81185 51.519H3.39983C4.04079 51.519 4.003 51.5265 5.18669 51.1602C5.78355 50.9754 6.20751 50.7563 6.96858 50.2392C7.48612 49.8875 7.72813 49.6846 8.31708 49.1085C9.10665 48.3362 9.64423 47.6149 10.0845 46.7371C10.3105 46.2866 10.6432 45.3749 10.6429 45.2071C10.6427 45.1261 10.6784 44.9165 10.8127 44.2103C10.8557 43.9839 10.8659 43.3995 10.8663 41.1128C10.8668 38.7805 10.8762 38.256 10.9207 38.0719C10.9657 37.8853 10.9748 37.2375 10.9764 34.0655C10.978 30.8936 10.987 30.2458 11.032 30.0592C11.0616 29.9368 11.0864 29.6806 11.0871 29.4899C11.088 29.2575 11.1072 29.1035 11.1454 29.0232C11.1859 28.938 11.4675 28.7045 12.1197 28.2154C12.6243 27.8371 13.0935 27.499 13.1623 27.464C13.3865 27.35 13.6232 27.4564 13.7213 27.7154C13.7485 27.787 13.7614 29.116 13.7623 31.9442C13.7634 35.4152 13.7721 36.104 13.8174 36.2913C13.8626 36.4785 13.8712 37.1559 13.8717 40.5618L13.8723 44.6097L13.7815 44.9675C13.7316 45.1642 13.6441 45.4126 13.5873 45.5194C13.4908 45.7005 12.9648 46.2622 12.6352 46.5361C12.4596 46.6821 12.4547 46.833 12.623 46.9132C12.7132 46.9562 12.7627 46.9549 12.9647 46.9042C13.0946 46.8716 13.233 46.8449 13.2722 46.8449C13.3114 46.8449 13.5063 46.7948 13.7053 46.7336C13.9042 46.6724 14.1244 46.6224 14.1945 46.6224C14.2647 46.6224 14.5205 46.5723 14.7631 46.5111C15.0057 46.4499 15.2595 46.3996 15.327 46.3993C15.3946 46.3991 15.5417 46.3743 15.654 46.3441C15.8152 46.3009 16.1311 46.2892 17.1572 46.2884C18.5598 46.2873 18.6102 46.2808 18.6764 46.0929C18.7299 45.9407 18.6135 45.8139 18.2571 45.6363C17.8852 45.451 17.7258 45.3016 17.5761 44.9979C17.4762 44.7953 17.4573 44.7075 17.4321 44.3302C17.4162 44.0913 17.3858 43.8291 17.3646 43.7475C17.3398 43.6521 17.3259 42.7113 17.3257 41.1137C17.3255 39.0699 17.335 38.5887 17.3792 38.4057C17.4245 38.2182 17.4333 37.5079 17.4349 33.8986C17.4365 30.2894 17.4453 29.579 17.4906 29.3915C17.5201 29.2691 17.5449 29.0616 17.5456 28.9303C17.5465 28.7706 17.5713 28.6415 17.6204 28.5401C17.6991 28.3776 18.6909 27.3799 19.1059 27.0457C19.2386 26.9389 19.4465 26.772 19.5678 26.6748C19.6891 26.5776 19.8938 26.4036 20.0226 26.288C20.4478 25.9068 20.7756 25.8041 21.0383 25.9697C21.2113 26.0787 21.7413 26.5195 21.7413 26.5543C21.7413 26.5692 21.9042 26.7553 22.1032 26.9678C22.3022 27.1804 22.5486 27.4611 22.6507 27.5917C22.8635 27.8639 23.4519 28.622 23.7877 29.0565C24.0434 29.3875 24.1169 29.5351 24.1169 29.7183C24.1169 29.9007 23.9245 30.2561 23.679 30.5273C23.5611 30.6576 23.4082 30.8392 23.3391 30.931C23.2699 31.0228 23.1502 31.1647 23.073 31.2463C22.9958 31.3279 22.8609 31.488 22.7731 31.602C22.4112 32.0722 22.2325 32.2926 22.0514 32.4921C21.9464 32.6078 21.739 32.884 21.5907 33.1058C21.4423 33.3276 21.2508 33.6009 21.165 33.7131C21.0793 33.8254 20.9546 34.0257 20.8878 34.1583C20.821 34.2909 20.7191 34.4683 20.6614 34.5524C20.4992 34.7887 20.0339 35.7514 20.0339 35.8505C20.0339 35.9586 20.1555 36.0872 20.2575 36.0872C20.2989 36.0872 20.4277 36.0539 20.5439 36.0131C20.7929 35.9256 20.9194 35.9189 20.9473 35.9916C20.9754 36.0647 20.9122 36.1706 20.702 36.4026C20.2578 36.8927 19.8749 37.6028 19.6966 38.2668C19.6541 38.4248 19.5791 38.6843 19.5297 38.8435C19.4426 39.1244 19.44 39.1683 19.44 40.3347C19.44 41.5051 19.4424 41.544 19.5306 41.8258C19.5805 41.985 19.664 42.2851 19.7162 42.4927C19.846 43.0091 20.0454 43.5053 20.386 44.1596C20.5442 44.4634 20.73 44.8204 20.799 44.9531C20.868 45.0857 21.0009 45.2943 21.0941 45.4168C21.1874 45.5392 21.3623 45.7819 21.4827 45.9561C21.6284 46.167 21.9471 46.5153 22.436 46.9979C23.3878 47.9374 23.4471 47.9604 24.3396 47.7352C24.5822 47.674 24.838 47.6239 24.9082 47.6239C24.9783 47.6239 25.1985 47.5739 25.3974 47.5126C25.5964 47.4514 25.8031 47.401 25.8567 47.4005C25.995 47.3994 26.2563 47.273 26.3038 47.1844C26.3643 47.0716 26.3524 46.806 26.2683 46.3871C26.1032 45.5645 25.9653 45.3265 25.6524 45.3248C25.4535 45.3238 25.205 45.4495 24.386 45.9655C23.9395 46.2469 23.7361 46.2599 23.6209 46.0144C23.5699 45.906 23.5406 45.7728 23.3955 44.9902C23.3584 44.7898 23.3366 44.4585 23.3359 44.0813C23.3352 43.694 23.316 43.4105 23.281 43.2652C23.241 43.0997 23.2272 42.7908 23.2272 42.0596C23.2272 41.3284 23.241 41.0196 23.281 40.854C23.3106 40.7316 23.3354 40.5146 23.3361 40.3717C23.3373 40.1235 23.4462 39.5075 23.5947 38.908C23.6328 38.7542 23.6751 38.5615 23.6888 38.4799C23.8035 37.7966 24.8929 34.8491 25.3409 34.0099C25.3791 33.9385 25.4939 33.6714 25.5962 33.4164C25.7931 32.9255 26.0055 32.4445 26.1204 32.2293C26.1585 32.1579 26.2734 31.8908 26.3757 31.6358C26.5731 31.1436 26.7916 30.6478 26.8884 30.4724C26.9205 30.4141 27.0552 30.1053 27.1876 29.7862C27.32 29.4671 27.505 29.0224 27.5987 28.798C27.7546 28.4249 27.7705 28.3583 27.7841 28.021C27.8067 27.4593 27.7965 27.4391 27.1661 26.8004C26.867 26.4974 26.4968 26.1532 26.3432 26.0355C26.1898 25.9178 26.0397 25.7921 26.0099 25.7562C25.98 25.7202 25.83 25.5929 25.6765 25.4733C25.523 25.3536 25.2722 25.1554 25.1191 25.0328C24.0303 24.1608 23.0966 23.5083 22.3538 23.1002C22.0028 22.9074 21.3845 22.6958 21.1723 22.6958C20.8038 22.6958 20.658 22.7763 20.1662 23.2512C19.9199 23.4891 19.6182 23.7605 19.4957 23.8544C19.3732 23.9483 19.0976 24.2031 18.8832 24.4207C18.6689 24.6383 18.3933 24.8927 18.2708 24.986C18.1483 25.0793 17.9813 25.2188 17.8996 25.2961C17.6892 25.4951 17.5589 25.5382 17.4377 25.4489C17.3855 25.4104 17.2009 25.1776 17.0273 24.9315C16.6205 24.3544 16.3975 24.0725 16.0994 23.7586C15.7998 23.4432 15.6972 23.387 15.4623 23.4096C15.2544 23.4295 14.8951 23.6497 14.544 23.9724C14.426 24.0808 14.1989 24.2575 14.0393 24.3651C13.8798 24.4727 13.6543 24.6479 13.5382 24.7546C13.4222 24.8612 13.1993 25.0347 13.043 25.1402C12.8867 25.2455 12.7005 25.383 12.6291 25.4456C12.5578 25.5081 12.278 25.7252 12.0074 25.9278C11.6063 26.2282 11.4949 26.2944 11.4048 26.2859C11.3304 26.2789 11.2791 26.2452 11.2476 26.1828C11.1799 26.0484 11.185 25.0061 11.2547 24.7175C11.2873 24.5826 11.3093 24.2976 11.3104 23.9941C11.3116 23.6906 11.3335 23.4057 11.3661 23.2708C11.4358 22.9822 11.4388 22.3984 11.3713 22.2371C11.2518 21.9512 10.9824 21.8775 10.7285 22.0613ZM43.2512 23.3105C43.1491 23.3388 42.932 23.3626 42.7687 23.3633C42.6053 23.3639 42.3799 23.389 42.2676 23.4192C42.1553 23.4493 41.9532 23.4741 41.8184 23.4744C41.3982 23.4751 40.1355 23.872 39.428 24.2257C38.3835 24.7479 37.9431 25.1589 37.3357 26.1779C37.179 26.4409 36.9227 27.2047 36.922 27.411C36.9217 27.5005 36.8972 27.674 36.8676 27.7964C36.8047 28.0568 36.7949 28.5571 36.849 28.7426C36.8698 28.8139 36.9022 29.0184 36.9211 29.197C36.942 29.3965 36.9843 29.5754 37.0306 29.6607C37.072 29.7371 37.1456 29.8914 37.1941 30.0036C37.2883 30.2215 37.7984 30.8244 38.0802 31.0509C38.4979 31.3866 38.9369 31.6335 39.119 31.635C39.2694 31.6362 39.4323 31.4756 39.5051 31.2545C39.5401 31.148 39.665 30.8186 39.7827 30.5226C40.0093 29.9526 40.1147 29.6015 40.1147 29.4167C40.1147 29.2411 39.9713 29.1505 39.6921 29.15C39.5673 29.1497 39.3733 29.1249 39.261 29.0948C39.1487 29.0646 38.9973 29.0398 38.9244 29.0396C38.7399 29.0389 38.4372 28.9435 38.3149 28.8474C38.1762 28.7383 38.0751 28.5021 38.0741 28.2849C38.0731 28.069 38.1975 27.5626 38.3017 27.3585C38.4025 27.1611 38.6699 26.8802 38.8939 26.7366C39.4763 26.363 40.1736 26.2677 41.6366 26.3614C42.044 26.3875 42.3147 26.4261 42.5645 26.4938C42.7585 26.5463 42.9789 26.5897 43.0544 26.5901C43.1299 26.5905 43.322 26.6316 43.4813 26.6814C43.6405 26.7312 43.9379 26.8144 44.142 26.8664C44.79 27.0312 45.4915 27.3086 46.3505 27.7398C46.5649 27.8474 46.7902 27.9709 46.8513 28.0143C46.9522 28.086 47.1326 28.1842 48.1906 28.7431C48.6868 29.0051 49.4139 29.2113 50.0103 29.2591C50.4255 29.2924 50.5029 29.4166 50.2506 29.6444C50.0691 29.8082 50.0138 29.9087 50.0467 30.0143C50.0831 30.1309 50.6712 30.7245 51.1944 31.1727C51.6952 31.6016 52.3273 32.2398 52.6053 32.5973C53.6019 33.8786 53.844 34.2656 54.3938 35.4566C54.6336 35.976 55.0023 37.2361 55 37.5285C54.9979 37.7994 54.7645 38.3765 54.4427 38.9065C53.8429 39.8945 53.4255 40.4315 52.7101 41.1357C51.7002 42.1297 51.1129 42.5059 50.5739 42.5041C50.3667 42.5035 49.9185 42.4012 49.7665 42.3198C49.6361 42.2501 48.9744 41.9589 48.6704 41.8374C48.5275 41.7803 48.2598 41.6609 48.0755 41.572C47.8912 41.4832 47.5916 41.3437 47.4097 41.2621C47.2278 41.1805 46.628 40.8912 46.077 40.6193C45.5259 40.3474 44.9653 40.0831 44.8313 40.0319C44.3464 39.8468 43.5024 39.5822 43.1027 39.49C42.193 39.2801 42.1642 39.2765 41.4215 39.277C40.7082 39.2775 40.7028 39.2781 40.107 39.4278C39.4492 39.5931 38.6694 39.8837 38.3405 40.0862C38.2241 40.1578 38.0436 40.2639 37.9394 40.3218C37.8352 40.3798 37.6765 40.4907 37.5868 40.5684C37.4971 40.6461 37.3199 40.7885 37.1929 40.885C36.8571 41.1403 36.4543 41.6175 35.9822 42.3193C35.4027 43.1808 35.332 43.3327 34.9766 44.4818C34.8217 44.9827 34.8069 45.0638 34.8069 45.4117C34.8069 45.7541 34.8173 45.8135 34.9089 45.9944C34.9896 46.1536 35.0537 46.2212 35.2151 46.3175C35.4814 46.4762 35.9482 46.6222 36.1914 46.6228C36.2975 46.623 36.4762 46.6479 36.5885 46.678C36.8807 46.7564 38.6348 46.7564 38.9269 46.678C39.0392 46.6479 39.2368 46.623 39.3659 46.6228C39.5757 46.6224 39.6124 46.6108 39.7093 46.5139C39.815 46.4082 39.8178 46.3959 39.8178 46.0273C39.8178 45.8193 39.7911 45.505 39.7584 45.3289C39.5153 44.0193 39.5613 44.0581 38.6239 44.3736C38.2904 44.4858 37.7754 44.6627 37.4793 44.7666C36.9082 44.9671 36.761 44.9817 36.6159 44.8526C36.4046 44.6646 36.4157 44.3153 36.6482 43.8441C36.8872 43.3595 37.5537 42.8077 38.2272 42.5367L38.5372 42.412H39.3909C40.4317 42.412 40.6816 42.4587 41.9892 42.8974C43.085 43.265 43.5762 43.4603 44.097 43.7353C44.2851 43.8346 44.5207 43.9531 44.6206 43.9986C44.7206 44.0441 45.0713 44.2186 45.4001 44.3864C45.7289 44.5542 46.5015 44.9449 47.1169 45.2548C48.463 45.9324 48.4344 45.9257 49.023 45.7034C49.2374 45.6224 49.4796 45.535 49.5613 45.5091C50.0783 45.345 51.3705 44.5779 52.1516 43.9714C52.4986 43.7019 54.2205 41.9767 54.4992 41.6191C54.6625 41.4097 55.0227 40.9213 55.3783 40.4274C55.5205 40.23 55.7387 39.8284 56.0232 39.2404C56.1367 39.0057 56.2519 38.772 56.2791 38.721C56.378 38.5354 56.6321 37.722 56.7972 37.0625L56.9663 36.387V34.9416V33.4962L56.8595 33.039C56.8007 32.7875 56.7235 32.4482 56.688 32.285C56.5192 31.5105 56.0587 30.3375 55.7414 29.8738C55.6856 29.7922 55.5869 29.6202 55.5221 29.4917C55.1439 28.741 53.7015 27.1548 52.7048 26.3933C52.4331 26.1857 52.1074 25.937 51.981 25.8407C51.8546 25.7444 51.6677 25.6206 51.5656 25.5655C51.4636 25.5104 51.2631 25.3872 51.1202 25.2917C50.9773 25.1962 50.7769 25.0766 50.6748 25.0258C50.5727 24.9751 50.3305 24.8491 50.1366 24.7459C49.7409 24.5353 48.4937 24.0315 48.147 23.9421C48.0225 23.9099 47.8091 23.8417 47.6729 23.7905C47.5367 23.7393 47.3609 23.6974 47.2822 23.6974C47.2035 23.6974 46.9764 23.6473 46.7774 23.5861C46.5316 23.5104 46.3368 23.4746 46.1697 23.4744C46.0344 23.4741 45.8318 23.4493 45.7195 23.4192C45.6073 23.389 45.3567 23.364 45.1628 23.3635C44.9688 23.363 44.7183 23.338 44.606 23.3079C44.3419 23.2371 43.5095 23.2386 43.2512 23.3105ZM44.0863 27.6875C43.9128 27.7595 43.5871 27.87 43.3625 27.933C43.138 27.9961 42.7872 28.0956 42.5831 28.1542C42.3789 28.2129 42.1033 28.2872 41.9706 28.3194C41.1717 28.5131 40.9691 28.6019 40.9114 28.7839C40.8807 28.8803 40.9814 29.0272 41.1497 29.1319C41.7623 29.5126 41.8888 29.6402 41.9896 29.9793C42.0639 30.2294 42.0641 31.1619 41.9899 31.4689C41.9603 31.5913 41.9353 31.7916 41.9342 31.914C41.9332 32.0364 41.9082 32.2367 41.8786 32.3592C41.849 32.4816 41.8243 32.7487 41.8236 32.9527C41.8226 33.295 41.8029 33.4423 41.6525 34.2333C41.6233 34.3868 41.5995 34.6706 41.5996 34.864C41.5998 35.1884 41.58 35.335 41.4298 36.1252C41.4006 36.2787 41.3765 36.5207 41.3761 36.6631C41.3758 36.8054 41.3514 37.0221 41.3218 37.1445C41.2922 37.2669 41.2674 37.4389 41.2667 37.5267C41.266 37.6144 41.2385 37.8046 41.2055 37.9492C41.1262 38.2977 41.1498 38.5979 41.2638 38.6901C41.31 38.7275 41.3836 38.758 41.4273 38.7577C41.5716 38.7571 41.8772 38.5864 42.1019 38.3811C42.2236 38.2698 42.5153 38.0322 42.7501 37.8532C42.9849 37.6742 43.2783 37.4498 43.4022 37.3546C43.5261 37.2594 43.704 37.1288 43.7976 37.0643C43.9837 36.9361 44.245 36.5811 44.3295 36.3415C44.3591 36.2577 44.3837 36.062 44.3842 35.9064C44.3847 35.7508 44.4047 35.5568 44.4287 35.4752C44.4599 35.3687 44.4782 34.3673 44.4933 31.9326L44.5142 28.5383L44.6344 28.2068C44.7716 27.8279 44.7826 27.7036 44.6866 27.6167C44.5851 27.5249 44.436 27.5425 44.0863 27.6875ZM55.9524 49.6054C55.6433 49.7182 55.5391 49.9009 55.5498 50.3113C55.5603 50.7166 55.4705 50.8925 55.0421 51.3052C54.4062 51.9178 54.278 51.963 53.9088 51.7046C53.6581 51.529 52.4557 50.6144 52.0853 50.3174C51.9424 50.2028 51.6918 50.0383 51.5285 49.9518C51.2547 49.8069 51.2099 49.7947 50.9532 49.7955C50.5535 49.7968 50.2394 49.9411 49.5528 50.4389C48.4399 51.2457 46.8975 52.4689 46.491 52.8672C46.203 53.1493 46.0013 53.4398 45.9459 53.6524C45.854 54.0046 45.7944 54.6855 45.7949 55.3769C45.7953 55.9949 45.8111 56.1985 45.9035 56.7753C46.0716 57.8247 46.2319 58.1344 46.9484 58.7934C47.461 59.2647 48.3246 59.9554 48.5192 60.0496C48.7448 60.1587 48.8987 60.1452 49.2119 59.9885C49.444 59.8726 49.5939 59.7457 50.2098 59.1446C50.9794 58.3935 51.1828 58.2465 51.5051 58.2083C51.8445 58.1682 52.0187 58.2188 52.2145 58.4145C52.4117 58.6116 52.5215 58.8821 52.585 59.3275C52.6342 59.6729 52.6328 61.9869 52.5833 62.2024C52.5087 62.5268 52.3477 62.9228 52.2411 63.0441C52.156 63.141 52.1047 63.1669 51.9976 63.1669C51.8858 63.1669 51.8037 63.121 51.5283 62.9041C50.6227 62.1912 49.6937 61.587 49.2347 61.4125C48.9605 61.3082 48.8916 61.2971 48.5405 61.3C48.2078 61.3028 48.0964 61.3209 47.7796 61.4234C47.0486 61.66 46.7425 61.8778 45.7752 62.8495C44.918 63.7106 44.5248 64.1804 44.295 64.6181C44.0543 65.0764 44.0023 65.2666 44.0177 65.6328C44.0292 65.9068 44.0437 65.9613 44.1431 66.1025C44.2049 66.1904 44.3274 66.3129 44.4154 66.3746C44.5597 66.476 44.603 66.487 44.8597 66.487C45.1917 66.487 45.3661 66.4038 45.5194 66.1723C45.7072 65.8886 45.685 65.6318 45.4403 65.2594C45.2161 64.9184 45.2197 64.8374 45.4696 64.5956C45.6142 64.4556 45.7468 64.3731 45.9799 64.2782C46.2761 64.1576 46.3204 64.15 46.7217 64.15C47.2045 64.15 47.2743 64.1708 48.0023 64.5321C48.5573 64.8075 48.8134 64.9741 49.951 65.8003C51.2729 66.7602 51.3816 66.8162 51.651 66.6759C51.7676 66.6151 52.1621 66.2099 52.7905 65.5054C53.0355 65.2307 53.3362 64.8969 53.4588 64.7635C53.8034 64.3884 54.9031 63.1302 55.3959 62.5474C55.853 62.0068 55.8739 61.8605 55.824 59.5501C55.7835 57.6711 55.7773 57.6268 55.5145 57.3284C55.3105 57.0968 54.3692 56.3924 54.0896 56.2621C53.3415 55.9136 52.906 55.9909 51.9695 56.6385C51.0154 57.2985 50.7324 57.383 50.2749 57.1447C49.9608 56.981 49.3182 56.5239 49.1927 56.3748C49.0613 56.2187 48.9324 55.9603 48.8574 55.7024C48.8053 55.5236 48.7982 55.317 48.8077 54.2759L48.8189 53.0584L48.9189 52.8884C49.0383 52.6854 49.2811 52.4575 49.4132 52.4244C49.5454 52.3912 49.7078 52.4298 49.854 52.5291C49.9901 52.6215 50.5951 53.1099 51.4326 53.8034C52.5557 54.7334 52.7495 54.8445 53.049 54.7302C53.4568 54.5745 55.0758 52.9281 56.3301 51.3933C56.5787 51.0892 56.7392 50.8223 56.8009 50.6102C56.9183 50.2063 56.8087 49.8594 56.5084 49.6852C56.3051 49.5673 56.127 49.5417 55.9524 49.6054ZM11.2369 50.5892C11.088 50.6348 10.8368 50.7698 9.71509 51.4073C7.68559 52.5606 7.61633 52.6145 7.62008 53.0371C7.62182 53.2331 7.64636 53.332 7.74487 53.5407C7.81231 53.6835 7.94137 53.9668 8.03168 54.1704C8.29533 54.7645 8.8695 55.7588 9.07659 55.9797C9.12918 56.0358 9.21047 56.0817 9.2572 56.0817C9.40846 56.0817 9.46725 55.9296 9.49572 55.4647C9.51885 55.087 9.5354 55.0132 9.65251 54.7668C9.8087 54.4381 9.90788 54.3568 10.5502 54.0307C11.8252 53.3834 12.0318 53.3149 12.2 53.483C12.3222 53.6051 12.3422 53.7945 12.3673 55.0616C12.3806 55.7349 12.4066 56.5111 12.4251 56.7865C12.4713 57.4767 12.4692 60.1567 12.422 60.7001C12.4007 60.9449 12.3668 61.5542 12.3466 62.0541C12.2733 63.8697 12.2627 63.9309 11.9875 64.1107C11.5984 64.3652 11.5357 64.3008 11.178 63.28C10.8406 62.3168 10.6546 61.7017 10.5662 61.2565C10.5298 61.0729 10.4732 60.8141 10.4405 60.6815C10.3598 60.3541 10.3227 59.4164 10.3819 59.1999C10.4395 58.9894 10.767 58.6444 11.341 58.1894C11.5803 57.9997 11.7765 57.8147 11.7979 57.7586C11.8839 57.5324 11.6578 57.3895 11.2778 57.4298C10.8435 57.4759 9.62964 57.9868 9.00602 58.386C8.24306 58.8745 7.50341 59.5877 7.26378 60.0661C7.16393 60.2654 7.15395 60.3192 7.15395 60.6578C7.15395 61.0756 7.19478 61.2507 7.57008 62.4436C8.19143 64.4185 8.69553 65.8215 8.90065 66.1468C9.04626 66.3776 9.302 66.5025 9.68948 66.5317C10.0585 66.5596 10.2883 66.4854 10.6802 66.2116C10.8537 66.0903 11.1678 65.8732 11.3782 65.729C11.9278 65.3523 12.0138 65.3655 12.2773 65.8675C12.3448 65.9961 12.4484 66.142 12.5076 66.1918C12.7786 66.4197 13.4391 66.4589 13.8488 66.2714C14.052 66.1784 14.2142 66.0333 14.7276 65.4851C15.0218 65.1709 15.7392 64.507 16.1837 64.1374C16.3627 63.9886 16.5353 63.827 16.5672 63.7783C16.6854 63.598 16.5365 63.4637 16.2183 63.4636C15.9888 63.4635 15.8001 63.3657 15.7178 63.204C15.6633 63.0971 15.6546 63.0088 15.6684 62.7032C15.7325 61.2877 15.768 59.1986 15.7511 57.8252C15.7185 55.1667 15.6697 55.0115 14.3925 53.4967C13.8418 52.8435 13.2645 52.2162 12.4061 51.338C11.6739 50.5889 11.533 50.4987 11.2369 50.5892ZM25.0444 51.9363C24.8443 52.0724 24.7917 52.1794 24.7302 52.5762C24.6168 53.3066 24.6119 53.3084 23.7457 52.9267C22.418 52.3418 22.1406 52.3027 21.5551 52.6188C20.6436 53.1108 18.8471 54.7732 18.6074 55.3464C18.5082 55.5839 18.4394 56.2271 18.3999 57.2873C18.3786 57.8586 18.3417 58.6181 18.3178 58.9751C18.2935 59.3382 18.2736 60.5236 18.2726 61.6646C18.2709 63.5343 18.2777 63.7652 18.3529 64.4282C18.4344 65.1467 18.5367 65.5651 18.7151 65.9098C18.825 66.1223 19.1083 66.3692 19.4102 66.5156C20.071 66.8361 21.6196 67.37 22.0255 67.4172C22.1244 67.4287 22.3671 67.4716 22.5649 67.5124C22.9034 67.5824 22.9381 67.5834 23.1587 67.5282C23.4933 67.4445 23.9273 67.2197 24.3729 66.899C24.8498 66.5559 24.9522 66.5084 25.0359 66.5919C25.0916 66.6477 25.0893 66.6687 25.0056 66.8664C24.8606 67.2087 24.8813 67.4533 25.1087 68.0821C25.4431 69.0072 25.7872 70.2958 25.7872 70.6233C25.7872 70.7125 25.823 70.9637 25.8667 71.1814C25.9105 71.3991 25.9355 71.6201 25.9224 71.6725C25.8904 71.8 25.8007 71.8844 25.6971 71.8844C25.6504 71.8844 25.2563 71.7674 24.8213 71.6244C24.3863 71.4815 23.9204 71.3471 23.7859 71.3258C23.6515 71.3045 23.4104 71.2537 23.2502 71.213C22.9883 71.1465 22.8624 71.1403 22.0067 71.1518C21.135 71.1636 21.017 71.1732 20.6092 71.2646C19.8932 71.4253 19.4344 71.6822 18.345 72.532C17.3099 73.3396 16.4545 74.0484 16.1516 74.3495C15.869 74.6304 15.807 74.7134 15.7711 74.8593C15.7078 75.1161 15.7717 75.3566 15.9892 75.6796C16.4538 76.3694 17.677 77.5496 18.2337 77.8451C18.4675 77.9692 18.5269 77.9844 18.8276 77.9965C19.106 78.0078 19.2137 77.9942 19.4744 77.9149C19.6464 77.8625 19.8235 77.8196 19.8679 77.8196C20.0805 77.8196 21.5519 77.3407 21.6578 77.237C21.765 77.1321 21.763 77.0936 21.6463 77.0172C21.5566 76.9585 21.5295 76.9597 21.1597 77.0385C20.7071 77.135 20.5491 77.1239 20.1785 76.9692C19.5243 76.6962 18.3986 75.7871 18.0174 75.224C17.8764 75.0157 17.99 74.6993 18.2422 74.5976C18.3972 74.5351 18.956 74.3793 19.1245 74.3516C19.2062 74.3382 19.44 74.2968 19.6442 74.2595C20.2801 74.1435 20.6682 74.1101 21.3772 74.1101C22.0826 74.1101 22.5323 74.1559 23.2075 74.2967C23.9236 74.4459 24.3448 74.592 25.1509 74.9705C25.6493 75.2046 25.839 75.2376 26.0139 75.1207C26.1104 75.0562 26.9466 74.1488 27.4389 73.5742C27.7393 73.2238 28.2103 72.7052 28.734 72.1483C29.1917 71.6616 29.2373 71.5673 29.2383 71.1054C29.2391 70.7289 29.1973 70.4532 29.0188 69.6586C28.8549 68.9288 28.7322 68.5235 28.3673 67.5071C28.1878 67.0072 27.9724 66.4063 27.8885 66.1717L27.7359 65.7451L27.7254 60.8485C27.7197 58.1553 27.729 55.5342 27.7463 55.0238C27.777 54.1124 27.7794 54.0924 27.8783 53.9109C28.0095 53.6701 28.1635 53.5695 28.4986 53.5057C28.7599 53.4559 28.868 53.3898 28.868 53.2797C28.868 53.1844 28.6196 53.0457 27.9586 52.7717C27.8361 52.7209 27.6106 52.6275 27.4575 52.564C27.3044 52.5006 26.9612 52.3573 26.6949 52.2458C25.9636 51.9394 25.6797 51.8528 25.4057 51.8528C25.2194 51.8528 25.1402 51.8711 25.0444 51.9363ZM38.6629 52.2356C38.5891 52.2632 38.4721 52.325 38.403 52.3729C38.1814 52.5264 37.5829 52.9742 37.215 53.2616C37.0185 53.4151 36.7274 53.6408 36.568 53.7632C35.863 54.3046 35.185 54.8594 35.0614 54.9961C34.9876 55.0778 34.8906 55.2423 34.8459 55.3617C34.7697 55.5654 34.7407 55.7381 34.6602 56.4712C34.6423 56.6344 34.5928 56.9482 34.5502 57.1686C34.476 57.5529 34.4728 57.6838 34.4728 60.3616C34.4728 63.9318 34.4759 63.9577 34.978 64.6031C35.4469 65.2059 36.8466 66.5725 37.4979 67.0635C37.9545 67.4076 38.2019 67.4515 39.6879 67.4515H40.6529L40.8521 67.3412C41.0918 67.2085 41.3661 66.8985 41.9648 66.0835C42.2028 65.7596 42.5541 65.2838 42.7455 65.0263C43.1404 64.4949 43.2468 64.2934 43.21 64.1467C43.1657 63.9704 42.5105 63.0129 42.2159 62.694C42.096 62.5642 41.9386 62.5336 41.8624 62.6253C41.8387 62.6538 41.7375 62.9835 41.6375 63.3579C41.2851 64.6776 40.8725 65.6864 40.5802 65.9428C40.4111 66.0912 40.2714 66.0951 39.8065 65.9645C38.867 65.7005 38.3685 65.3028 38.126 64.6238C38.0231 64.3357 38.023 64.3344 37.9934 62.9629C37.9771 62.208 37.9533 61.4927 37.9406 61.3734C37.9148 61.1316 38.0006 60.8299 38.0952 60.8299C38.1484 60.8299 38.1819 60.874 38.5178 61.3863C38.7131 61.6843 39.0253 61.9643 39.3025 62.09C39.5356 62.1957 39.8789 62.1919 40.0415 62.0819C40.2109 61.9673 40.3374 61.7157 40.3374 61.4934C40.3374 61.3382 40.3195 61.2965 40.1982 61.1694C40.106 61.0727 40.0027 61.0088 39.892 60.9799C39.8002 60.9559 39.6833 60.9245 39.6323 60.91C39.5813 60.8956 39.5191 60.841 39.494 60.7887C39.3392 60.466 39.9128 59.8805 40.7951 59.4608C40.9619 59.3814 41.683 59.1214 42.3975 58.8829C43.8515 58.3976 44.0644 58.3075 44.1872 58.1253C44.2952 57.9651 44.2941 57.8209 44.1823 57.5042C44.0923 57.2489 44.0315 57.0965 43.7329 56.3785C43.6438 56.1642 43.5268 55.8805 43.4728 55.7478C42.8819 54.2973 42.7318 53.9838 42.5581 53.8378C42.398 53.7031 41.3067 53.1282 40.4475 52.7259C39.3974 52.2342 38.9759 52.1185 38.6629 52.2356ZM39.0228 53.9483C39.1338 54.0594 40.1314 56.0578 40.21 56.3268C40.3002 56.6355 40.2414 56.7179 39.7087 57.0297C39.5365 57.1306 39.2818 57.3194 39.1429 57.4493C38.7817 57.7869 38.6399 58.0093 38.2942 58.7804C38.1731 59.0504 38.1077 59.1051 38.0503 58.9844C38.0333 58.9487 38.0137 58.2717 38.0068 57.48C37.995 56.1254 37.999 56.0161 38.0749 55.6252C38.1193 55.3968 38.1694 55.0911 38.1863 54.9457C38.2238 54.6239 38.4144 54.1527 38.5767 53.9807C38.7244 53.8243 38.8868 53.8125 39.0228 53.9483ZM22.9477 54.6783C23.35 54.8151 23.969 55.0915 24.1705 55.2246C24.251 55.2778 24.3512 55.3797 24.3932 55.4511C24.4689 55.5799 24.4695 55.6105 24.4661 59.3832C24.4624 63.677 24.4348 64.6208 24.3031 64.9661C24.1646 65.3288 23.7962 65.6166 23.2555 65.7845C23.0491 65.8487 23.0363 65.8484 22.7544 65.7735C22.5953 65.7312 22.4062 65.6866 22.3342 65.6743C22.1616 65.645 21.952 65.4681 21.8576 65.2721C21.6672 64.8769 21.6555 64.7675 21.6216 63.0556C21.5832 61.1248 21.5832 61.305 21.624 58.2703C21.6497 56.3538 21.6687 55.774 21.7139 55.5253C21.7453 55.3518 21.7834 55.1381 21.7984 55.0503C21.8337 54.8435 21.9513 54.6705 22.1132 54.5867C22.2789 54.501 22.4959 54.5248 22.9477 54.6783Z" fill="#FF8906"/>
</svg>
