<svg width="32" height="32" viewBox="0 0 32 32" fill="none" xmlns="http://www.w3.org/2000/svg">
<path d="M14.7071 11.3738C15.0976 10.9832 15.0976 10.3501 14.7071 9.95955C14.3165 9.56903 13.6834 9.56903 13.2929 9.95955L7.95952 15.2929C7.76426 15.4881 7.66663 15.7441 7.66663 16C7.66663 16.1356 7.69361 16.2649 7.7425 16.3828C7.7913 16.5007 7.86364 16.6112 7.95952 16.7071L13.2929 22.0404C13.6834 22.431 14.3165 22.431 14.7071 22.0404C15.0976 21.6499 15.0976 21.0167 14.7071 20.6262L11.0808 17H24C24.5522 17 25 16.5523 25 16C25 15.4477 24.5522 15 24 15H11.0808L14.7071 11.3738Z" fill="black"/>
</svg>
