<svg width="32" height="32" viewBox="0 0 32 32" fill="none" xmlns="http://www.w3.org/2000/svg">
<path d="M24 12.8H27.2C28.0836 12.8 28.8 13.5164 28.8 14.4L28.7999 26.8C28.7999 27.9046 27.9045 28.8 26.7999 28.8L14.4 28.8C13.5163 28.8 12.8 28.0837 12.8 27.2V24M16 3.20001L6.39995 3.20001C4.63264 3.20001 3.19995 4.6327 3.19995 6.40001L3.19995 16C3.19995 17.7673 4.63264 19.2 6.39995 19.2L16 19.2C17.7673 19.2 19.2 17.7673 19.2 16L19.2 6.40001C19.2 4.6327 17.7673 3.20001 16 3.20001Z" stroke="black" stroke-width="2" stroke-linecap="round"/>
</svg>
