<svg width="32" height="32" viewBox="0 0 32 32" fill="none" xmlns="http://www.w3.org/2000/svg">
<path d="M3.20001 7.20002H28.8M12.8 23.2V13.6M19.2 23.2V13.6M22.4 29.6H9.60001C7.8327 29.6 6.40001 28.1673 6.40001 26.4V8.80002C6.40001 7.91637 7.11636 7.20002 8.00001 7.20002H24C24.8837 7.20002 25.6 7.91637 25.6 8.80002V26.4C25.6 28.1673 24.1673 29.6 22.4 29.6ZM12.8 7.20002H19.2C20.0837 7.20002 20.8 6.48368 20.8 5.60002V4.00002C20.8 3.11637 20.0837 2.40002 19.2 2.40002H12.8C11.9164 2.40002 11.2 3.11637 11.2 4.00002V5.60002C11.2 6.48368 11.9164 7.20002 12.8 7.20002Z" stroke="black" stroke-width="2" stroke-linecap="round" stroke-linejoin="round"/>
</svg>
