<svg width="32" height="32" viewBox="0 0 32 32" fill="none" xmlns="http://www.w3.org/2000/svg">
<path d="M21.2325 12.1816C21.6231 11.7911 21.6231 11.1579 21.2325 10.7674C20.842 10.3769 20.2089 10.3769 19.8183 10.7674L21.2325 12.1816ZM10.7674 19.8184C10.3768 20.2089 10.3768 20.8421 10.7674 21.2326C11.1579 21.6231 11.791 21.6231 12.1816 21.2326L10.7674 19.8184ZM19.8183 21.2326C20.2089 21.6231 20.842 21.6231 21.2325 21.2326C21.6231 20.8421 21.6231 20.2089 21.2325 19.8184L19.8183 21.2326ZM12.1816 10.7674C11.791 10.3769 11.1579 10.3769 10.7674 10.7674C10.3768 11.1579 10.3768 11.7911 10.7674 12.1816L12.1816 10.7674ZM27.7999 16C27.7999 22.517 22.5169 27.8 16 27.8V29.8C23.6215 29.8 29.7999 23.6215 29.7999 16H27.7999ZM16 27.8C9.48299 27.8 4.19995 22.517 4.19995 16H2.19995C2.19995 23.6215 8.37842 29.8 16 29.8V27.8ZM4.19995 16C4.19995 9.48305 9.48299 4.20001 16 4.20001V2.20001C8.37842 2.20001 2.19995 8.37848 2.19995 16H4.19995ZM16 4.20001C22.5169 4.20001 27.7999 9.48305 27.7999 16H29.7999C29.7999 8.37848 23.6215 2.20001 16 2.20001V4.20001ZM19.8183 10.7674L15.2928 15.2929L16.7071 16.7071L21.2325 12.1816L19.8183 10.7674ZM15.2928 15.2929L10.7674 19.8184L12.1816 21.2326L16.7071 16.7071L15.2928 15.2929ZM21.2325 19.8184L16.7071 15.2929L15.2928 16.7071L19.8183 21.2326L21.2325 19.8184ZM16.7071 15.2929L12.1816 10.7674L10.7674 12.1816L15.2928 16.7071L16.7071 15.2929Z" fill="black"/>
</svg>
